<svg xmlns="http://www.w3.org/2000/svg" viewBox="0 0 412 56" width="824" height="112" role="img" xmlns:c2pa="http://c2pa.org/manifest"><metadata><c2pa:manifest>AAAWgmp1bWIAAAAeanVtZGMycGEAEQAQgAAAqgA4m3EDYzJwYQAAABZcanVtYgAAAEdqdW1kYzJtYQARABCAAACqADibcQN1cm46YzJwYTphMTM5YTA1Yy05NDNiLTQ2ZjctYThkZS03NzU3N2YyOWQzYzUAAAADl2p1bWIAAAApanVtZGMyYXMAEQAQgAAAqgA4m3EDYzJwYS5hc3NlcnRpb25zAAAAALxqdW1iAAAARGp1bWRjYm9yABEAEIAAAKoAOJtxE2MycGEuaW5ncmVkaWVudC52MwAAAAAYYzJzaEP+IpDX+jnfretd+iAfw0QAAABwY2JvcqNpZGM6Zm9ybWF0bWltYWdlL3N2Zyt4bWxqaW5zdGFuY2VJRHgseG1wOmlpZDo3NjViZjRkYy0xNmZjLTRiZjUtODc2Mi0yMDc2MzE2NTJmMTZscmVsYXRpb25zaGlwaHBhcmVudE9mAAAB4mp1bWIAAABBanVtZGNib3IAEQAQgAAAqgA4m3ETYzJwYS5hY3Rpb25zLnYyAAAAABhjMnNoJbF/QBV2rPDzXs7OXKM45AAAAZljYm9yomdhY3Rpb25zgqJmYWN0aW9ua2MycGEub3BlbmVkanBhcmFtZXRlcnOha2luZ3JlZGllbnRzgaJjdXJseC1zZWxmI2p1bWJmPWMycGEuYXNzZXJ0aW9ucy9jMnBhLmluZ3JlZGllbnQudjNkaGFzaFggBN0S+ySp/10LNXieuibxX2Bw2z+j2OAGdDY/bwPIc3ykZmFjdGlvbngdY29tLmFudGhyb3BpYy5jbGF1ZGUucHJvdmlkZWRqcGFyYW1ldGVyc6F4H2NvbS5hbnRocm9waWMub3JpZ2luLWNvbmZpZGVuY2VndW5rbm93bmtkZXNjcmlwdGlvbnhmQ2xhdWRlIHByb3ZpZGVkIHRoaXMgZmlsZSBhdCB0aGUgcmVxdWVzdCBvZiBhIHVzZXIgYW5kIG1heSBoYXZlIGNyZWF0ZWQgb3IgbW9kaWZpZWQgdGhlIGZpbGUgY29udGVudHMubXNvZnR3YXJlQWdlbnShZG5hbWVmQ2xhdWRlcmFsbEFjdGlvbnNJbmNsdWRlZPUAAADIanVtYgAAAEBqdW1kY2JvcgARABCAAACqADibcRNjMnBhLmhhc2guZGF0YQAAAAAYYzJzaJcN7QzyVAzznNXW4/n15kIAAACAY2JvcqVjYWxnZnNoYTI1NmNwYWRNAAAAAAAAAAAAAAAAAGRoYXNoWCC9Kvh/IkWpUg3NpemOD7Pytyi1HXJgBqUMLHbAL/1AlWRuYW1lbmp1bWJmIG1hbmlmZXN0amV4Y2x1c2lvbnOBomVzdGFydBigZmxlbmd0aBkeBAAAAj5qdW1iAAAAJ2p1bWRjMmNsABEAEIAAAKoAOJtxA2MycGEuY2xhaW0udjIAAAACD2Nib3KlY2FsZ2ZzaGEyNTZpc2lnbmF0dXJleE1zZWxmI2p1bWJmPS9jMnBhL3VybjpjMnBhOmExMzlhMDVjLTk0M2ItNDZmNy1hOGRlLTc3NTc3ZjI5ZDNjNS9jMnBhLnNpZ25hdHVyZWppbnN0YW5jZUlEeCx4bXA6aWlkOmU2N2UxZTVjLTNmMGUtNGY3Mi04OTk0LWIwZTYzNTY5OTVmZXJjcmVhdGVkX2Fzc2VydGlvbnODomN1cmx4LXNlbGYjanVtYmY9YzJwYS5hc3NlcnRpb25zL2MycGEuaW5ncmVkaWVudC52M2RoYXNoWCAE3RL7JKn/XQs1eJ66JvFfYHDbP6PY4AZ0Nj9vA8hzfKJjdXJseCpzZWxmI2p1bWJmPWMycGEuYXNzZXJ0aW9ucy9jMnBhLmFjdGlvbnMudjJkaGFzaFggJadYZLUxEtdodg4MncY3H+78TL/INwAkgVqJS4e4vbCiY3VybHgpc2VsZiNqdW1iZj1jMnBhLmFzc2VydGlvbnMvYzJwYS5oYXNoLmRhdGFkaGFzaFggwOOk1IKxlN+YSyXA7tobd97BFaQWt+Ovvw8Aq3UoBOV0Y2xhaW1fZ2VuZXJhdG9yX2luZm+jZG5hbWVvQW50aHJvcGljIEZpbGVzZ3ZlcnNpb25lMS4wLjBrc3BlY1ZlcnNpb25lMi40LjAAABA4anVtYgAAAChqdW1kYzJjcwARABCAAACqADibcQNjMnBhLnNpZ25hdHVyZQAAABAIY2JvctKEWQISogEmGCFZAgowggIGMIIBjaADAgECAhRA5aAK7sI50L64g/oGQgU9Z1UTADAKBggqhkjOPQQDAzBJMRcwFQYDVQQKEw5BbnRocm9waWMsIFBCQzEuMCwGA1UEAxMlQW50aHJvcGljIENvbnRlbnQgQ3JlZGVudGlhbHMgUm9vdCBDQTAeFw0yNjA4MDcxODQzNTZaFw0yODA4MDYxOTQzNTZaMEQxFzAVBgNVBAoTDkFudGhyb3BpYywgUEJDMSkwJwYDVQQDEyBBbnRocm9waWMgQ2xhdWRlIENvbnRlbnQgU2lnbmluZzBZMBMGByqGSM49AgEGCCqGSM49AwEHA0IABJh6CmvLUBgFFNU0vUKlOVtE6djd17L5SuwX0LemFisBM3dkd/3cyjxFA3Qo5S46fX0/ihY0VZ7mfb9KF703t5OjWDBWMA4GA1UdDwEB/wQEAwIHgDAVBgNVHSUEDjAMBgorBgEEAYPoXgIBMAwGA1UdEwEB/wQCMAAwHwYDVR0jBBgwFoAUzlHiBIFOZFsj+OPEz5o+nMHXXMIwCgYIKoZIzj0EAwMDZwAwZAIwMXMdFJ4BetLLVY7ORuE9noqbbAZOZn/aArXyTwFAZfKrPzxF2vPoJNf1+UCdg1XGAjBwX1zd9WGqYkqmL5SFqw1QySjr1zJfpJM9+1rdDwSPLMOPOjKuiXjoU/pUUeG9RwmhY3BhZFkNngAAAAAAAAAAAAAAAAAAAAAAAAAAAAAAAAAAAAAAAAAAAAAAAAAAAAAAAAAAAAAAAAAAAAAAAAAAAAAAAAAAAAAAAAAAAAAAAAAAAAAAAAAAAAAAAAAAAAAAAAAAAAAAAAAAAAAAAAAAAAAAAAAAAAAAAAAAAAAAAAAAAAAAAAAAAAAAAAAAAAAAAAAAAAAAAAAAAAAAAAAAAAAAAAAAAAAAAAAAAAAAAAAAAAAAAAAAAAAAAAAAAAAAAAAAAAAAAAAAAAAAAAAAAAAAAAAAAAAAAAAAAAAAAAAAAAAAAAAAAAAAAAAAAAAAAAAAAAAAAAAAAAAAAAAAAAAAAAAAAAAAAAAAAAAAAAAAAAAAAAAAAAAAAAAAAAAAAAAAAAAAAAAAAAAAAAAAAAAAAAAAAAAAAAAAAAAAAAAAAAAAAAAAAAAAAAAAAAAAAAAAAAAAAAAAAAAAAAAAAAAAAAAAAAAAAAAAAAAAAAAAAAAAAAAAAAAAAAAAAAAAAAAAAAAAAAAAAAAAAAAAAAAAAAAAAAAAAAAAAAAAAAAAAAAAAAAAAAAAAAAAAAAAAAAAAAAAAAAAAAAAAAAAAAAAAAAAAAAAAAAAAAAAAAAAAAAAAAAAAAAAAAAAAAAAAAAAAAAAAAAAAAAAAAAAAAAAAAAAAAAAAAAAAAAAAAAAAAAAAAAAAAAAAAAAAAAAAAAAAAAAAAAAAAAAAAAAAAAAAAAAAAAAAAAAAAAAAAAAAAAAAAAAAAAAAAAAAAAAAAAAAAAAAAAAAAAAAAAAAAAAAAAAAAAAAAAAAAAAAAAAAAAAAAAAAAAAAAAAAAAAAAAAAAAAAAAAAAAAAAAAAAAAAAAAAAAAAAAAAAAAAAAAAAAAAAAAAAAAAAAAAAAAAAAAAAAAAAAAAAAAAAAAAAAAAAAAAAAAAAAAAAAAAAAAAAAAAAAAAAAAAAAAAAAAAAAAAAAAAAAAAAAAAAAAAAAAAAAAAAAAAAAAAAAAAAAAAAAAAAAAAAAAAAAAAAAAAAAAAAAAAAAAAAAAAAAAAAAAAAAAAAAAAAAAAAAAAAAAAAAAAAAAAAAAAAAAAAAAAAAAAAAAAAAAAAAAAAAAAAAAAAAAAAAAAAAAAAAAAAAAAAAAAAAAAAAAAAAAAAAAAAAAAAAAAAAAAAAAAAAAAAAAAAAAAAAAAAAAAAAAAAAAAAAAAAAAAAAAAAAAAAAAAAAAAAAAAAAAAAAAAAAAAAAAAAAAAAAAAAAAAAAAAAAAAAAAAAAAAAAAAAAAAAAAAAAAAAAAAAAAAAAAAAAAAAAAAAAAAAAAAAAAAAAAAAAAAAAAAAAAAAAAAAAAAAAAAAAAAAAAAAAAAAAAAAAAAAAAAAAAAAAAAAAAAAAAAAAAAAAAAAAAAAAAAAAAAAAAAAAAAAAAAAAAAAAAAAAAAAAAAAAAAAAAAAAAAAAAAAAAAAAAAAAAAAAAAAAAAAAAAAAAAAAAAAAAAAAAAAAAAAAAAAAAAAAAAAAAAAAAAAAAAAAAAAAAAAAAAAAAAAAAAAAAAAAAAAAAAAAAAAAAAAAAAAAAAAAAAAAAAAAAAAAAAAAAAAAAAAAAAAAAAAAAAAAAAAAAAAAAAAAAAAAAAAAAAAAAAAAAAAAAAAAAAAAAAAAAAAAAAAAAAAAAAAAAAAAAAAAAAAAAAAAAAAAAAAAAAAAAAAAAAAAAAAAAAAAAAAAAAAAAAAAAAAAAAAAAAAAAAAAAAAAAAAAAAAAAAAAAAAAAAAAAAAAAAAAAAAAAAAAAAAAAAAAAAAAAAAAAAAAAAAAAAAAAAAAAAAAAAAAAAAAAAAAAAAAAAAAAAAAAAAAAAAAAAAAAAAAAAAAAAAAAAAAAAAAAAAAAAAAAAAAAAAAAAAAAAAAAAAAAAAAAAAAAAAAAAAAAAAAAAAAAAAAAAAAAAAAAAAAAAAAAAAAAAAAAAAAAAAAAAAAAAAAAAAAAAAAAAAAAAAAAAAAAAAAAAAAAAAAAAAAAAAAAAAAAAAAAAAAAAAAAAAAAAAAAAAAAAAAAAAAAAAAAAAAAAAAAAAAAAAAAAAAAAAAAAAAAAAAAAAAAAAAAAAAAAAAAAAAAAAAAAAAAAAAAAAAAAAAAAAAAAAAAAAAAAAAAAAAAAAAAAAAAAAAAAAAAAAAAAAAAAAAAAAAAAAAAAAAAAAAAAAAAAAAAAAAAAAAAAAAAAAAAAAAAAAAAAAAAAAAAAAAAAAAAAAAAAAAAAAAAAAAAAAAAAAAAAAAAAAAAAAAAAAAAAAAAAAAAAAAAAAAAAAAAAAAAAAAAAAAAAAAAAAAAAAAAAAAAAAAAAAAAAAAAAAAAAAAAAAAAAAAAAAAAAAAAAAAAAAAAAAAAAAAAAAAAAAAAAAAAAAAAAAAAAAAAAAAAAAAAAAAAAAAAAAAAAAAAAAAAAAAAAAAAAAAAAAAAAAAAAAAAAAAAAAAAAAAAAAAAAAAAAAAAAAAAAAAAAAAAAAAAAAAAAAAAAAAAAAAAAAAAAAAAAAAAAAAAAAAAAAAAAAAAAAAAAAAAAAAAAAAAAAAAAAAAAAAAAAAAAAAAAAAAAAAAAAAAAAAAAAAAAAAAAAAAAAAAAAAAAAAAAAAAAAAAAAAAAAAAAAAAAAAAAAAAAAAAAAAAAAAAAAAAAAAAAAAAAAAAAAAAAAAAAAAAAAAAAAAAAAAAAAAAAAAAAAAAAAAAAAAAAAAAAAAAAAAAAAAAAAAAAAAAAAAAAAAAAAAAAAAAAAAAAAAAAAAAAAAAAAAAAAAAAAAAAAAAAAAAAAAAAAAAAAAAAAAAAAAAAAAAAAAAAAAAAAAAAAAAAAAAAAAAAAAAAAAAAAAAAAAAAAAAAAAAAAAAAAAAAAAAAAAAAAAAAAAAAAAAAAAAAAAAAAAAAAAAAAAAAAAAAAAAAAAAAAAAAAAAAAAAAAAAAAAAAAAAAAAAAAAAAAAAAAAAAAAAAAAAAAAAAAAAAAAAAAAAAAAAAAAAAAAAAAAAAAAAAAAAAAAAAAAAAAAAAAAAAAAAAAAAAAAAAAAAAAAAAAAAAAAAAAAAAAAAAAAAAAAAAAAAAAAAAAAAAAAAAAAAAAAAAAAAAAAAAAAAAAAAAAAAAAAAAAAAAAAAAAAAAAAAAAAAAAAAAAAAAAAAAAAAAAAAAAAAAAAAAAAAAAAAAAAAAAAAAAAAAAAAAAAAAAAAAAAAAAAAAAAAAAAAAAAAAAAAAAAAAAAAAAAAAAAAAAAAAAAAAAAAAAAAAAAAAAAAAAAAAAAAAAAAAAAAAAAAAAAAAAAAAAAAAAAAAAAAAAAAAAAAAAAAAAAAAAAAAAAAAAAAAAAAAAAAAAAAAAAAAAAAAAAAAAAAAAAAAAAAAAAAAAAAAAAAAAAAAAAAAAAAAAAAAAAAAAAAAAAAAAAAAAAAAAAAAAAAAAAAAAAAAAAAAAAAAAAAAAAAAAAAAAAAAAAAAAAAAAAAAAAAAAAAAAAAAAAAAAAAAAAAAAAAAAAAAAAAAAAAAAAAAAAAAAAAAAAAAAAAAAAAAAAAAAAAAAAAAAAAAAAAAAAAAAAAAAAAAAAAAAAAAAAAAAAAAAAAAAAAAAAAAAAAAAAAAAAAAAAAAAAAAAAAAAAAAAAAAAAAAAAAAAAAAAAAAAAAAAAAAAAAAAAAAAAAAAAAAAAAAAAAAAAAAAAAAAAAAAAAAAAAAAAAAAAAAAAAAAAAAAAAAAAAAAAAAAAAAAAAAAAAAAAAAAAAAAAAAAAAAAAAAAAAAAAAAAAAAAAAAAAAAAAAAAAAAAAAAAAAAAAAAAAAAAAAAAAAAAAAAAAAAAAAAAAAAAAAAAAAAAAAAAAAAAAAAAAAAAAAAAAAAAAAAAAAAAAAAAAAAAAAAAAAAAAAAAAAAAAAAAAAAAAAAAAAAAAAAAAAAAAAAAAAAAAAAAAAAAAAAAAAAAAAAAAAAAAAAAAAAAAAAAAAAAAAAAAAAAAAAAAAAAAAAAAAAAAAAAAAAAAAAAAAAAAAAAAAAAAAAAAAAAAAAAAAAAAAAAAAAAAAAAAAAAAAAAAAAAAAAAAAAAAAAAAAAAAAAAAAAAAAAAAAAAAAAAAAAAAAAAAAAAAAAAAAAAAAAAAAAAAAAAAAAAAAAAAAAAAAAAAAAAAAAAAAAAAAAAAAAAAAAAAAAAAAAAAAAAAAAAAAAAAAAAAAAAAAAAAAAAAAAAAAAAAAAAAAAAAAAAAAAAAAAAAAAAAAAAAAAAAAAAAAAAAAAAAAAAAAAAAAAAAAAAAAAAAAAAAAAAAAAAAAAAAAAAAAAAAAAAAAAAAAAAAAAAAAAAAAAAAAAAAAAAAAAAAAAAAAAAAAAAAAAAAAAAAAAAAAAAAAAAAAAAAAAAAAAAAAAAAAAAAAAAAAAAAAAAAAAAAAAAAAAAAAAAAAAAAAAAAAAAAAAAAAAAAAAAAAAAAAAAAAAAAAAAAAAAAAAAAAAAAAAAAAAAAAAAAAAAAAAAAAAAAAAAAAAAAAAAAAAAAAAAAAAAAAAAAAAAAAAAAAAAAAAAAAAAAAAAAAAAAAAAAAAAAAAAAAAAAAAAAAAAAAAAAAAAAAAAAAAAAAAAAAAAAAAAAAAAAAAAAAAAAAAAAAAAAAAAAAAAAAAAAAAAAAAAAAAAAAAAAAAAAAAAAAAAAAAAAAAAAAAAAAAAAAAAAAAPZYQAe8orpp5fTahXPty0h58QG5P8aJ+7M2s8UXSRnLj6j3YjUfhON/MmDnbiBXVS1s9clDSH4oNHMRAm3GW2IK/MU=</c2pa:manifest></metadata><title>پرشین‌پاد</title><path d="M10.86 36.41Q9.78 36.41 8.33 36.25Q6.87 36.08 5.6 35.83V41.45Q6.89 41.75 8.24 41.85Q9.59 41.96 11.15 41.96Q14.59 41.96 17.13 41.1Q19.68 40.24 21.1 38.33Q22.52 36.41 22.52 33.29Q22.52 31.02 21.58 29.15Q20.64 27.27 19.04 25.73Q17.44 24.19 15.46 22.93Q13.47 21.67 11.4 20.65L9 25.73Q11.29 26.8 13.22 28.15Q15.15 29.5 16.34 30.9Q17.54 32.29 17.54 33.52Q17.54 34.71 16.54 35.33Q15.54 35.95 14 36.18Q12.46 36.41 10.86 36.41ZM26.77 14.62V32.94Q26.77 37.47 28.78 39.73Q30.78 42 35.15 42H35.64V36.36H35.15Q33.24 36.36 32.64 35.46Q32.05 34.56 32.05 32.47V14.62ZM34.82 36.36V42H39.02Q41.91 42 43.56 40.8Q45.21 39.6 45.9 37.54Q46.6 35.48 46.6 32.86Q46.6 31.22 46.37 29.42Q46.15 27.62 45.78 25.77L40.66 27.1Q40.99 28.6 41.31 30.18Q41.64 31.77 41.64 33.07Q41.64 34.5 41.08 35.43Q40.52 36.36 39.04 36.36ZM38.55 48.93 35.41 52.08 38.55 55.22 41.7 52.08ZM35.15 43.93 32.01 47.08 35.15 50.22 38.3 47.08ZM41.97 43.93 38.82 47.08 41.97 50.22 45.11 47.08ZM61.89 25.05 58.39 28.56 61.89 32.06 65.41 28.56ZM62.12 46.45Q59.37 46.45 57.79 45.53Q56.21 44.6 55.54 43.03Q54.88 41.45 54.88 39.58Q54.88 37.86 55.37 35.89Q55.86 33.91 56.58 31.84L51.83 30.03Q50.88 32.49 50.37 34.98Q49.86 37.47 49.86 39.81Q49.86 43.29 51.17 46.05Q52.48 48.82 55.2 50.43Q57.93 52.04 62.12 52.04Q65.82 52.04 68.45 50.74Q71.09 49.44 72.63 47.03Q74.18 44.62 74.61 41.34Q75.13 41.73 75.78 41.86Q76.42 42 77.24 42H77.95V36.36H77.16Q75.88 36.36 75.2 35.58Q74.53 34.81 74.18 33.8L72.61 29.05L67.4 31Q68.24 33.04 68.91 35.26Q69.59 37.49 69.59 39.62Q69.59 41.57 68.89 43.11Q68.2 44.66 66.58 45.55Q64.96 46.45 62.12 46.45ZM77.16 36.36V42H81.46Q83.3 42 84.94 41.33Q86.58 40.65 87.75 39.46Q88.36 40.22 89.18 40.79Q90 41.36 91.05 41.68Q92.11 42 93.39 42H93.84V36.36H93.43Q92.38 36.36 91.71 36.07Q91.05 35.79 90.71 35.16Q90.37 34.54 90.31 33.56L89.92 27.98L85.04 28.58Q85.11 29.62 85.17 30.71Q85.23 31.8 85.23 32.94Q85.23 34.89 84.42 35.62Q83.61 36.36 81.46 36.36ZM85.6 44.5 82.3 47.78 79 44.5 75.68 47.82 79 51.18 82.3 47.88 85.6 51.18 88.94 47.82ZM110.84 14.09 107.69 17.23 110.84 20.38 113.98 17.23ZM114.25 19.09 111.11 22.23 114.25 25.38 117.4 22.23ZM107.44 19.09 104.29 22.23 107.44 25.38 110.58 22.23ZM106.66 42Q108.38 42 109.63 41.28Q110.89 40.55 111.89 39.5Q112.71 40.55 113.91 41.28Q115.11 42 116.87 42Q119.53 42 121.03 40.69Q122.54 39.38 123.18 37.26Q123.82 35.14 123.82 32.72Q123.82 31 123.57 29.27Q123.32 27.53 122.93 25.96L117.87 27.35Q118 27.78 118.24 28.76Q118.47 29.73 118.68 30.92Q118.88 32.1 118.88 33.21Q118.88 34.07 118.7 34.78Q118.51 35.5 118.06 35.93Q117.61 36.36 116.83 36.36Q115.58 36.36 115.06 35.66Q114.55 34.97 114.47 33.76L114.06 28.48L109.16 29.09Q109.21 29.79 109.28 30.67Q109.35 31.55 109.38 32.28Q109.41 33.02 109.41 33.29Q109.41 35.01 108.86 35.68Q108.32 36.36 106.7 36.36Q105.35 36.36 104.67 35.7Q104 35.05 103.9 33.76L103.49 28.48L98.59 29.09Q98.65 29.79 98.72 30.66Q98.79 31.53 98.81 32.26Q98.84 33 98.84 33.29Q98.84 34.64 98.44 35.29Q98.04 35.95 97.17 36.15Q96.3 36.36 94.88 36.36H93.04V42H94.84Q97.12 42 98.6 41.34Q100.07 40.67 101.15 39.54Q102.01 40.65 103.34 41.33Q104.66 42 106.66 42ZM138.14 42H138.69V36.36H137.93Q136.66 36.36 136.01 35.51Q135.37 34.66 135.04 33.39L133.9 28.97L128.65 30.67Q129.29 32.59 129.86 34.81Q130.43 37.04 130.43 38.8Q130.43 41.45 129.32 43.14Q128.22 44.83 126.17 45.83Q124.12 46.82 121.29 47.43L123.22 52.64Q126.62 52 129.12 50.48Q131.62 48.95 133.16 46.63Q134.7 44.3 135.21 41.32Q135.76 41.63 136.52 41.81Q137.28 42 138.14 42ZM137.91 36.36V42H143.43Q146.32 42 147.97 40.8Q149.62 39.6 150.32 37.54Q151.01 35.48 151.01 32.86Q151.01 31.22 150.79 29.42Q150.56 27.62 150.19 25.77L145.07 27.1Q145.41 28.6 145.73 30.18Q146.05 31.77 146.05 33.07Q146.05 34.5 145.49 35.43Q144.94 36.36 143.45 36.36ZM142.96 48.93 139.82 52.08 142.96 55.22 146.11 52.08ZM139.57 43.93 136.42 47.08 139.57 50.22 142.71 47.08ZM146.38 43.93 143.24 47.08 146.38 50.22 149.53 47.08Z" fill="#1B2340"/><rect x="180" y="4" width="48" height="48" rx="10" fill="#1B2340"/><rect x="240" y="4" width="48" height="48" rx="10" fill="#1B2340"/><rect x="300" y="4" width="48" height="48" rx="10" fill="#1B2340"/><rect x="360" y="4" width="48" height="48" rx="10" fill="#1B2340"/><style>.g{transform:translate(120px,0px);animation:pp 6.4s ease-in-out infinite}@keyframes pp{0.00%{transform:translate(120px,0px)}15.00%{transform:translate(120px,0px)}25.00%{transform:translate(0px,0px)}40.00%{transform:translate(0px,0px)}50.00%{transform:translate(180px,0px)}65.00%{transform:translate(180px,0px)}75.00%{transform:translate(60px,0px)}90.00%{transform:translate(60px,0px)}100%{transform:translate(120px,0px)}}@media (prefers-reduced-motion:reduce){.g{animation:none}}</style><rect class="g" x="180" y="4" width="48" height="48" rx="10" fill="#08CB00"/></svg>